<?xml version="1.0" encoding="UTF-8" ?>
<!DOCTYPE svg PUBLIC "-//W3C//DTD SVG 1.1//EN" "http://www.w3.org/Graphics/SVG/1.1/DTD/svg11.dtd">
<svg width="408pt" height="676pt" viewBox="0 0 408 676" version="1.1" xmlns="http://www.w3.org/2000/svg">
<path fill="#ffffff" d=" M 0.00 0.00 L 408.00 0.00 L 408.00 676.00 L 0.00 676.00 L 0.00 0.00 Z" />
<path fill="#00964e" d=" M 230.08 50.56 C 234.42 50.77 238.60 49.29 242.94 49.48 C 249.35 49.65 255.86 48.91 262.18 50.27 C 265.29 50.71 268.48 50.24 271.58 50.83 C 282.84 53.40 294.28 55.45 305.16 59.43 C 318.16 64.36 330.93 70.36 341.93 78.97 C 348.66 83.85 354.02 90.28 360.07 95.93 C 364.22 99.68 366.99 104.58 369.99 109.22 C 376.60 119.63 381.08 131.25 384.40 143.09 C 384.81 145.68 384.55 148.31 384.46 150.92 C 377.59 147.23 370.99 142.97 363.70 140.13 C 355.02 136.73 346.01 134.18 336.82 132.65 C 331.91 132.36 326.98 132.49 322.06 132.57 C 313.58 133.52 305.46 136.69 298.08 140.91 C 292.16 144.18 287.51 149.20 282.93 154.06 C 272.55 166.27 265.78 181.09 260.85 196.22 C 256.82 209.94 254.02 224.00 251.63 238.09 C 251.65 242.66 250.98 247.14 250.33 251.65 C 249.45 251.57 248.57 251.50 247.69 251.44 C 247.05 246.61 245.47 241.93 245.45 237.02 C 242.96 222.26 239.91 207.51 234.80 193.38 C 231.35 181.94 225.24 171.58 218.80 161.60 C 210.29 148.60 197.01 138.45 181.76 134.89 C 174.39 132.63 166.57 133.62 158.99 133.63 C 144.09 136.60 129.50 141.60 116.38 149.34 C 114.32 150.87 111.69 150.50 109.29 150.61 C 109.90 144.29 112.19 138.27 114.60 132.44 C 118.90 121.31 125.33 111.11 132.52 101.64 C 140.19 93.21 148.61 85.50 157.26 78.10 C 178.61 62.73 204.37 54.72 230.08 50.56 Z" />
<path fill="#00964e" d=" M 325.32 142.72 C 332.82 141.77 340.36 142.97 347.41 145.58 C 364.41 151.10 376.29 167.70 378.48 185.10 C 379.27 193.75 377.67 202.44 373.97 210.29 C 368.46 222.24 357.75 231.65 345.14 235.48 C 329.15 240.56 310.37 236.48 298.37 224.60 C 295.23 221.50 292.20 218.24 289.86 214.50 C 286.75 209.05 284.92 202.96 283.63 196.86 C 283.35 190.02 282.81 182.92 285.43 176.42 C 290.36 158.48 306.98 144.90 325.32 142.72 Z" />
<path fill="#00964e" d=" M 157.35 144.52 C 162.67 144.39 168.01 144.27 173.33 144.59 C 186.68 147.13 198.63 155.65 205.91 167.06 C 211.19 176.37 213.46 187.35 212.19 197.99 C 210.69 204.62 209.02 211.44 205.10 217.12 C 197.50 227.75 186.23 236.31 173.12 238.42 C 167.41 238.62 161.67 238.70 155.97 238.37 C 151.34 237.49 147.17 235.10 142.85 233.30 C 129.66 226.17 119.87 212.63 118.06 197.65 C 116.40 188.69 118.55 179.40 122.25 171.22 C 128.92 157.50 142.35 147.22 157.35 144.52 Z" />
<path fill="#ffffff" d=" M 328.31 152.35 C 332.08 152.39 335.87 152.28 339.64 152.62 C 358.40 156.65 372.33 176.38 369.13 195.43 C 368.00 200.12 366.91 204.92 364.38 209.09 C 359.09 218.16 349.97 224.75 339.93 227.59 C 320.90 232.54 299.56 220.05 294.20 201.19 C 289.63 187.73 293.92 171.87 304.47 162.40 C 310.87 156.41 319.27 151.64 328.31 152.35 Z" />
<path fill="#ffffff" d=" M 157.23 153.66 C 161.81 153.29 166.42 153.48 171.00 153.52 C 183.26 155.37 194.16 163.86 199.49 174.99 C 202.10 181.57 204.26 188.69 203.25 195.85 C 201.36 205.95 196.55 216.05 187.97 222.11 C 181.24 226.71 173.36 230.48 164.99 229.58 C 157.62 230.41 150.73 227.26 144.56 223.60 C 135.40 217.72 128.87 207.88 127.47 197.05 C 127.47 190.35 126.45 183.23 129.91 177.14 C 134.46 165.40 145.23 156.86 157.23 153.66 Z" />
<path fill="#00964e" d=" M 326.48 156.89 C 335.17 155.64 344.39 158.37 351.21 163.92 C 359.14 169.39 363.16 178.90 364.42 188.17 C 364.64 197.41 360.85 206.77 354.38 213.39 C 347.25 220.20 337.25 224.45 327.29 223.30 C 318.41 221.60 309.67 217.28 304.33 209.77 C 300.99 205.57 299.39 200.36 298.27 195.19 C 297.22 191.55 297.18 187.60 298.33 183.97 C 299.71 178.43 301.76 172.90 305.58 168.55 C 310.99 162.45 318.50 158.44 326.48 156.89 Z" />
<path fill="#00964e" d=" M 157.44 158.76 C 161.80 158.28 166.23 158.40 170.61 158.64 C 177.78 160.30 184.69 163.78 189.50 169.48 C 195.06 175.04 197.01 182.96 198.38 190.44 C 198.82 193.99 197.31 197.37 196.50 200.76 C 193.75 210.56 186.26 219.02 176.56 222.37 C 170.70 225.33 163.94 224.65 157.62 224.22 C 149.01 220.85 140.24 215.80 136.19 207.06 C 132.53 200.72 131.90 193.37 132.54 186.21 C 134.49 173.10 145.10 162.70 157.44 158.76 Z" />
<path fill="#00964e" d=" M 340.76 292.06 C 354.54 287.32 367.83 278.97 375.09 265.94 C 378.38 268.16 377.63 272.15 377.21 275.53 C 375.38 284.75 378.08 294.47 375.14 303.51 C 345.76 303.49 316.37 303.30 286.98 303.45 C 281.22 303.12 275.83 305.70 270.08 305.67 C 248.79 310.33 227.53 317.62 209.96 330.88 C 203.23 335.00 197.34 340.24 191.55 345.55 C 180.07 358.21 169.79 372.08 162.40 387.54 C 158.61 395.01 154.65 402.45 152.19 410.49 C 145.56 429.75 139.61 449.26 134.72 469.04 C 131.10 481.73 128.60 494.70 125.11 507.42 C 122.11 516.82 119.90 526.47 116.43 535.73 C 110.50 551.37 103.04 566.60 92.72 579.83 C 82.31 596.48 66.73 609.15 50.16 619.32 C 46.54 621.50 42.80 623.48 38.94 625.22 C 35.12 626.88 31.27 629.43 26.90 628.39 C 29.70 624.14 33.36 620.51 35.91 616.09 C 45.55 599.16 50.21 580.05 54.68 561.26 C 57.32 551.94 57.82 542.24 60.23 532.87 C 60.69 526.16 61.99 519.56 63.21 512.96 C 64.07 506.02 62.80 498.93 64.33 492.07 C 64.69 488.05 64.26 483.96 65.27 480.01 C 66.50 461.22 69.09 442.51 72.57 423.99 C 75.36 410.05 78.68 396.08 84.46 383.03 C 88.68 375.06 92.25 366.72 97.52 359.35 C 104.22 350.01 111.20 340.60 120.35 333.48 C 135.16 320.69 152.08 310.05 170.73 303.87 C 187.35 298.39 204.80 296.17 222.14 294.53 C 235.61 294.49 249.10 294.35 262.57 294.66 C 267.43 295.92 272.46 295.15 277.39 295.81 C 283.17 297.26 289.23 295.79 295.03 297.18 C 304.30 298.19 313.54 296.82 322.77 296.25 C 328.82 295.08 334.86 293.84 340.76 292.06 Z" />
<path fill="#00964e" d=" M 267.48 311.78 C 274.56 309.28 282.05 308.48 289.31 306.71 C 291.68 306.40 294.09 306.51 296.49 306.45 C 297.51 308.48 298.80 310.53 298.49 312.91 C 298.25 318.71 298.90 324.59 297.69 330.31 C 297.13 337.53 298.03 344.83 296.62 351.98 C 296.90 359.99 294.44 367.74 294.40 375.73 C 292.65 389.07 289.71 402.22 287.04 415.40 C 278.86 452.80 264.49 489.06 243.10 520.91 C 232.37 536.61 220.28 551.43 206.52 564.57 C 190.44 579.03 172.79 591.77 153.87 602.26 C 135.03 613.35 114.24 620.69 93.30 626.71 C 79.86 630.96 65.82 632.66 52.03 635.35 C 48.08 635.66 44.12 635.50 40.17 635.51 C 40.56 634.80 41.36 633.36 41.76 632.64 C 58.04 627.38 72.71 617.83 84.82 605.83 C 97.23 591.42 108.26 575.75 116.76 558.71 C 120.04 551.83 122.86 544.75 125.95 537.79 C 129.09 530.55 131.02 522.89 133.62 515.46 C 137.02 505.50 138.41 495.01 141.08 484.85 C 144.97 469.75 149.61 454.85 154.09 439.92 C 164.82 410.14 179.88 381.63 200.56 357.53 C 205.22 352.53 209.53 347.18 214.92 342.92 C 222.64 334.69 232.54 329.01 242.15 323.29 C 250.03 318.32 258.76 314.94 267.48 311.78 Z" />
<path fill="#ffffff" d=" M 149.24 331.24 C 158.69 326.01 170.19 325.21 180.57 327.54 C 180.59 328.81 180.60 330.09 180.59 331.36 C 171.94 334.31 163.26 337.19 154.93 340.97 C 147.53 344.46 139.73 346.98 132.32 350.43 C 129.99 351.74 127.30 351.56 124.73 351.54 C 127.06 345.63 132.40 341.96 137.04 338.00 C 140.60 334.91 145.18 333.51 149.24 331.24 Z" />
<path fill="#ffffff" d=" M 225.44 352.28 C 235.14 354.26 243.21 361.02 249.12 368.69 C 257.14 380.37 259.55 395.12 258.23 409.02 C 257.54 411.95 257.53 414.96 257.31 417.94 C 256.86 419.93 255.72 421.68 254.95 423.55 C 251.28 416.91 248.90 409.69 245.87 402.76 C 239.23 385.86 231.58 369.36 225.44 352.28 Z" />
<path fill="#ffffff" d=" M 126.81 406.41 C 131.53 405.92 136.68 404.19 141.08 406.88 C 137.61 411.11 132.50 413.26 128.00 416.13 C 117.44 422.96 106.54 429.22 96.07 436.19 C 94.17 437.81 91.64 437.52 89.31 437.56 C 90.99 426.09 99.32 416.33 109.66 411.49 C 115.08 409.01 120.71 406.27 126.81 406.41 Z" />
<path fill="#ffffff" d=" M 187.26 428.26 C 189.00 428.52 191.11 427.98 192.42 429.49 C 197.51 433.82 202.36 438.61 205.62 444.51 C 209.37 450.68 211.13 457.78 212.67 464.77 C 213.99 469.73 213.41 474.92 213.53 480.00 C 213.83 488.37 212.40 496.82 209.65 504.72 C 208.83 504.69 207.20 504.64 206.38 504.61 C 201.00 484.69 195.93 464.69 190.83 444.69 C 189.61 439.22 187.30 433.95 187.26 428.26 Z" />
<path fill="#ffffff" d=" M 89.21 508.19 C 94.37 504.06 100.86 502.32 107.15 500.75 C 110.93 500.40 115.01 499.85 118.54 501.63 C 113.72 506.90 107.69 510.79 102.13 515.20 C 92.95 522.02 84.57 529.85 75.13 536.33 C 73.92 536.79 72.53 536.78 71.38 536.15 C 71.33 532.43 73.41 529.21 74.72 525.86 C 77.74 518.71 83.28 513.02 89.21 508.19 Z" />
<path fill="#ffffff" d=" M 152.45 530.36 C 154.03 530.39 155.61 530.41 157.20 530.43 C 159.50 534.24 161.95 538.05 163.19 542.37 C 165.08 552.53 161.50 563.04 155.10 570.95 C 154.13 572.65 152.09 572.54 150.42 572.97 C 150.55 568.14 150.17 563.27 150.83 558.48 C 152.02 553.84 151.06 549.01 151.83 544.33 C 152.87 539.75 152.34 535.02 152.45 530.36 Z" />
<path fill="#00964e" d=" M 278.43 551.14 C 286.26 545.96 296.07 544.41 305.25 545.84 C 314.44 548.48 322.40 556.01 324.38 565.52 C 324.68 570.19 324.84 574.90 324.40 579.57 C 321.94 585.30 317.62 590.48 311.86 593.12 C 306.07 595.86 299.74 598.06 293.25 597.50 C 293.80 591.21 299.32 586.46 299.45 580.01 C 299.94 574.74 297.40 569.76 294.36 565.63 C 290.16 560.36 284.07 557.13 278.46 553.62 C 278.45 553.00 278.44 551.76 278.43 551.14 Z" />
<path fill="#00964e" d=" M 236.56 565.85 C 242.37 563.15 248.44 560.32 254.99 560.45 C 258.58 560.59 262.41 559.92 265.78 561.47 C 273.58 564.63 280.83 570.88 282.27 579.56 C 284.74 586.75 283.12 594.75 278.96 600.96 C 272.22 608.91 261.36 612.71 251.15 612.50 C 252.04 606.23 257.56 601.50 257.53 595.01 C 258.19 589.44 255.59 584.12 252.13 579.94 C 248.05 574.98 242.48 571.47 236.56 569.11 C 236.56 568.02 236.56 566.93 236.56 565.85 Z" />
</svg>
